# xmcd
#
# Track frame offsets: 
#        150
#        14141
#        32045
#        47358
#        67557
#        79922
#        106238
#        127459
#        144487
#        156726
#        176683
#        193948
#
# Disc length: 2891 seconds
#
# Revision: 0
# Processed by: cddbd v1.5.2PL0 Copyright (c) Steve Scherf et al.
# Submitted via: ExactAudioCopy v0.99pb4
#
DISCID=ac0b490c
DTITLE=Various Artist - Genuine Houserockin' Music III
DYEAR=1988
DGENRE=Blues
TTITLE0=Elvin Bishop - Don't Lie To Me
TTITLE1=Katie Webster - Who's Making Love?
TTITLE2=The Paladins - Years Since Yesterday
TTITLE3=A.C. Reed - She's Fine
TTITLE4=Roy Buchanan - High Wire
TTITLE5=Lonnie Brooks - Two Headed Man
TTITLE6=Kenny Neal - Outside Looking In
TTITLE7=Little Charlie and The Nightcats - I Ain't Lyin'
TTITLE8=The Kinsey Report - Poor Man's Relief
TTITLE9=Maurice John Vaughn - Girl Don't Live Here
TTITLE10=Tinsley Ellis - Can't You Lie
TTITLE11=The Siegel-Schwall Band - I Think It was the Wine
EXTD=
EXTT0=
EXTT1=
EXTT2=
EXTT3=
EXTT4=
EXTT5=
EXTT6=
EXTT7=
EXTT8=
EXTT9=
EXTT10=
EXTT11=
PLAYORDER=
